<svg viewBox="0 0 100 100" fill="none" xmlns="http://www.w3.org/2000/svg">
  <!-- Double-Bordered Fiduciary Shield -->
  <path d="M50 90C50 90 85 72 85 42V18L50 10L15 18V42C15 72 50 90 50 90Z" stroke="#C5A059" stroke-width="1.2" stroke-linecap="round" stroke-linejoin="round"/>
  <path d="M50 82C50 82 78 68 78 42V22L50 15L22 22V42C22 68 50 82 50 82Z" stroke="#C5A059" stroke-width="0.6" stroke-linecap="round" stroke-linejoin="round" opacity="0.4"/>
  
  <!-- Architectural Serif 'I' -->
  <path d="M44 25H56M50 25V55M44 55H56" stroke="#C5A059" stroke-width="2.5" stroke-linecap="round"/>
  <path d="M43 25V28M57 25V28M43 52V55M57 52V55" stroke="#C5A059" stroke-width="1.2" stroke-linecap="round"/>
  
  <!-- The Eye of Strategic Vision -->
  <path d="M32 68C40 60 60 60 68 68" stroke="#C5A059" stroke-width="1" stroke-linecap="round"/>
  <path d="M32 68C40 76 60 76 68 68" stroke="#C5A059" stroke-width="1" stroke-linecap="round"/>
  <circle cx="50" cy="68" r="2.5" fill="#C5A059"/>
</svg>